/vscmnt/brussel_pixiu_data/_data_brussel/112/vsc11236/PredSimResults/SUBJ09mtu3D/worker1.mot
version=1
nRows=4
nColumns=50
inDegrees=yes
endheader
                time	         pelvis_tilt	         pelvis_list	     pelvis_rotation	           pelvis_tx	           pelvis_ty	           pelvis_tz	       hip_flexion_r	     hip_adduction_r	      hip_rotation_r	        knee_angle_r	       ankle_angle_r	         mtp_angle_r	       hip_flexion_l	     hip_adduction_l	      hip_rotation_l	        knee_angle_l	       ankle_angle_l	         mtp_angle_l	    lumbar_extension	      lumbar_bending	     lumbar_rotation	 ercspn_r/activation	 intobl_r/activation	 extobl_r/activation	    abd_r/activation	    add_r/activation	hamstrings_r/activation	bifemsh_r/activation	glut_max_r/activation	iliopsoas_r/activation	rect_fem_r/activation	  vasti_r/activation	gastroc_r/activation	 soleus_r/activation	tib_ant_r/activation	 ercspn_l/activation	 intobl_l/activation	 extobl_l/activation	    abd_l/activation	    add_l/activation	hamstrings_l/activation	bifemsh_l/activation	glut_max_l/activation	iliopsoas_l/activation	rect_fem_l/activation	  vasti_l/activation	gastroc_l/activation	 soleus_l/activation	tib_ant_l/activation	
          1.27439487	         -3.46172018	         -2.00915394	          8.25654132	          1.58024963	          0.98324634	         -0.00227049	         28.68195058	         -0.46018630	         -7.98773637	         -5.23019327	          2.31065709	          0.24706446	        -16.36759756	         -3.75297751	         -3.80263690	         -7.98043758	          6.71582915	         33.49678104	        -13.95963995	         -0.27144087	         -4.52278617	          0.01648303	          0.17015648	          0.05615308	          0.01000003	          0.20487167	          0.03506121	          0.19752473	          0.06873331	          0.16420873	          0.01322063	          0.01000014	          0.02321706	          0.01469855	          0.36266707	          0.01000802	          0.01000030	          0.01000062	          0.02619603	          0.01209000	          0.02950641	          0.19661144	          0.01470196	          0.01162745	          0.01000036	          0.01000021	          0.39777103	          0.18794058	          0.01000002	
          1.28713881	         -3.48858055	         -2.08731482	          8.20842971	          1.60063516	          0.98125189	         -0.00175950	         28.60254250	         -0.31720663	         -8.16179244	         -7.09088394	          1.85666153	          0.21101600	        -16.91370982	         -4.00965022	         -4.33385455	         -8.98943436	          5.46051360	         35.39285456	        -13.49514380	          0.18390214	         -4.62192818	          0.01359550	          0.14034694	          0.04631568	          0.07588412	          0.16898057	          0.05841202	          0.16292068	          0.08955069	          0.13544116	          0.01090457	          0.01000010	          0.01914971	          0.01212400	          0.41570483	          0.01000206	          0.01000009	          0.01212416	          0.02160677	          0.01000036	          0.02665201	          0.16216748	          0.01212637	          0.01006228	          0.01000026	          0.01000016	          0.36217019	          0.15502393	          0.01000003	
          1.29988276	         -3.49852750	         -2.17225040	          8.12329494	          1.62123885	          0.97967825	         -0.00117268	         28.41434953	         -0.15679350	         -8.31287912	         -8.78524982	          1.21821891	          0.19916530	        -17.21351004	         -4.29250606	         -4.88500190	        -10.47089949	          4.07217342	         37.24865236	        -13.02246054	          0.65085951	         -4.69647692	          0.01121414	          0.11575970	          0.03820169	          0.13368238	          0.18526942	          0.05782932	          0.13437884	          0.11981202	          0.11171335	          0.01000013	          0.01000010	          0.01579491	          0.01000006	          0.46993473	          0.02496258	          0.01000014	          0.01000041	          0.01782151	          0.01000065	          0.02468274	          0.13375763	          0.01000200	          0.01000292	          0.01000049	          0.01000051	          0.31331923	          0.12786545	          0.01000004	
          1.31262671	         -3.49310001	         -2.25395627	          8.00485048	          1.64168450	          0.97873619	         -0.00050119	         28.28887766	          0.00071624	         -8.44791893	        -10.61643995	          0.67258260	          0.15839122	        -17.14189573	         -4.60340159	         -5.44347104	        -12.60142804	          2.56581191	         38.93576123	        -12.58497912	          1.11837996	         -4.74727271	          0.02979045	          0.09547987	          0.03150918	          0.18951057	          0.25120912	          0.05152519	          0.11083719	          0.16952601	          0.09214239	          0.01000028	          0.03183724	          0.01302788	          0.01000501	          0.47982105	          0.08100094	          0.01000014	          0.01000013	          0.01469938	          0.04496494	          0.02035888	          0.11032487	          0.01000008	          0.02356996	          0.01000036	          0.01000025	          0.25842915	          0.10546483	          0.01000002	
